<svg id="Capa_1" enable-background="new 0 0 512 512" height="512" viewBox="0 0 512 512" width="512" xmlns="http://www.w3.org/2000/svg" xmlns:xlink="http://www.w3.org/1999/xlink"><linearGradient id="lg1"><stop offset="0" stop-color="#f4fbff"/><stop offset=".5145" stop-color="#cbe2ff"/><stop offset="1" stop-color="#bed8fb"/></linearGradient><radialGradient id="SVGID_1_" cx="197.93" cy="112.302" gradientTransform="matrix(-1 0 0 1.704 558.718 -79.05)" gradientUnits="userSpaceOnUse" r="44.274" xlink:href="#lg1"/><linearGradient id="lg2"><stop offset=".015" stop-color="#bed8fb"/><stop offset=".4762" stop-color="#93bffb"/><stop offset=".6651" stop-color="#80b4fb"/><stop offset=".8679" stop-color="#6faafa"/><stop offset="1" stop-color="#61a2f9"/></linearGradient><radialGradient id="SVGID_2_" cx="422.706" cy="184.788" gradientUnits="userSpaceOnUse" r="64.131" xlink:href="#lg2"/><radialGradient id="SVGID_3_" cx="424.118" cy="207.659" gradientUnits="userSpaceOnUse" r="62.803" xlink:href="#lg1"/><radialGradient id="SVGID_4_" cx="417.341" cy="281.565" gradientUnits="userSpaceOnUse" r="57.476" xlink:href="#lg2"/><radialGradient id="SVGID_5_" cx="425.176" cy="330.271" gradientUnits="userSpaceOnUse" r="51.002" xlink:href="#lg1"/><radialGradient id="SVGID_6_" cx="422" cy="396.553" gradientUnits="userSpaceOnUse" r="51.464" xlink:href="#lg2"/><linearGradient id="lg3"><stop offset="0" stop-color="#80b4fb"/><stop offset=".5158" stop-color="#5490f9"/><stop offset="1" stop-color="#407093"/></linearGradient><radialGradient id="SVGID_7_" cx="41.765" cy="254.459" gradientTransform="matrix(-1 0 0 1.704 558.718 -179.116)" gradientUnits="userSpaceOnUse" r="151.624" xlink:href="#lg3"/><radialGradient id="SVGID_8_" cx="50.235" cy="436.929" gradientUnits="userSpaceOnUse" r="35.896" xlink:href="#lg2"/><radialGradient id="SVGID_9_" cx="46" cy="383.424" gradientUnits="userSpaceOnUse" r="51.963" xlink:href="#lg1"/><radialGradient id="SVGID_10_" cx="46.424" cy="343.612" gradientUnits="userSpaceOnUse" r="54.162" xlink:href="#lg2"/><radialGradient id="SVGID_11_" cx="43.459" cy="83.988" gradientUnits="userSpaceOnUse" r="53.44" xlink:href="#lg1"/><radialGradient id="SVGID_12_" cx="50.235" cy="160.647" gradientUnits="userSpaceOnUse" r="55.405" xlink:href="#lg1"/><radialGradient id="SVGID_13_" cx="59.129" cy="129.729" gradientUnits="userSpaceOnUse" r="38.985" xlink:href="#lg2"/><radialGradient id="SVGID_14_" cx="110.178" cy="64.02" gradientTransform="matrix(1 0 0 1.136 0 -8.733)" gradientUnits="userSpaceOnUse" r="244.465"><stop offset="0" stop-color="#f9f6f9"/><stop offset=".5145" stop-color="#c6c1c8"/><stop offset="1" stop-color="#afaab4"/></radialGradient><radialGradient id="SVGID_15_" cx="117.073" cy="380.325" gradientTransform="matrix(1 0 0 .839 0 61.13)" gradientUnits="userSpaceOnUse" r="144.635"><stop offset=".0353" stop-color="#afaab4"/><stop offset=".2645" stop-color="#a59faa"/><stop offset=".6678" stop-color="#8b818e"/><stop offset=".6715" stop-color="#8b818e"/><stop offset="1" stop-color="#756e78"/></radialGradient><linearGradient id="lg4"><stop offset=".0988" stop-color="#8b818e"/><stop offset=".5391" stop-color="#665e66"/><stop offset="1" stop-color="#454045"/></linearGradient><radialGradient id="SVGID_16_" cx="375.464" cy="336.489" gradientTransform="matrix(1 0 0 1.316 0 -106.413)" gradientUnits="userSpaceOnUse" r="292.383" xlink:href="#lg4"/><radialGradient id="SVGID_17_" cx="340.906" cy="325.636" gradientTransform="matrix(1 0 0 1.52 0 -169.333)" gradientUnits="userSpaceOnUse" r="371.591"><stop offset="0" stop-color="#dfdde2"/><stop offset=".2772" stop-color="#c9c6cd"/><stop offset=".5584" stop-color="#afaab4"/><stop offset=".8574" stop-color="#a79fab"/><stop offset="1" stop-color="#a298a5"/></radialGradient><radialGradient id="SVGID_18_" cx="293.263" cy="208.564" gradientTransform="matrix(1 0 0 1.013 0 -2.751)" gradientUnits="userSpaceOnUse" r="221.023" xlink:href="#lg4"/><radialGradient id="SVGID_19_" cx="386.762" cy="2815.84" gradientTransform="matrix(.931 0 0 .112 -111.519 173.971)" gradientUnits="userSpaceOnUse" r="199.013"><stop offset="0" stop-color="#c6c1c8"/><stop offset=".2432" stop-color="#dddbdf"/><stop offset=".4962" stop-color="#f1f1f4"/><stop offset=".888" stop-color="#fff"/></radialGradient><radialGradient id="SVGID_20_" cx="41.341" cy="269.918" gradientUnits="userSpaceOnUse" r="48.074" xlink:href="#lg1"/><radialGradient id="SVGID_21_" cx="51.276" cy="249.637" gradientTransform="matrix(1 0 0 1.704 0 -175.722)" gradientUnits="userSpaceOnUse" r="37.713" xlink:href="#lg2"/><radialGradient id="SVGID_22_" cx="153.553" cy="232.224" gradientTransform="matrix(1 0 0 1.704 0 -163.465)" gradientUnits="userSpaceOnUse" r="151.624" xlink:href="#lg3"/><g><path d="m431.336 79.538-28.863 62.983 39.749 12.748 16.114-75.731z" fill="url(#SVGID_1_)"/><path d="m402.473 142.521 26 56.734 39.56 12.559-38.56-69.293z" fill="url(#SVGID_2_)"/><path d="m428.473 199.255-26 56.737 40.956 13.956 12.044-70.693z" fill="url(#SVGID_3_)"/><path d="m402.473 255.992 26 56.736 36.859 9.858-35.859-66.594z" fill="url(#SVGID_4_)"/><path d="m428.473 312.728-26 56.742 37.158 10.158 15.842-66.9z" fill="url(#SVGID_5_)"/><path d="m402.473 369.47 28.863 62.991h27l-13.677-62.991z" fill="url(#SVGID_6_)"/><path d="m458.336 432.461-28.863-62.991 26-56.742-26-56.736 26-56.737-26-56.734 28.863-62.983 27.274 12.498-23.137 50.485 26 56.734-26 56.737 26 56.736-26 56.742 23.137 50.495z" fill="url(#SVGID_7_)"/><path d="m26.39 419.965 27.274 12.496h27l-19.417-21.508z" fill="url(#SVGID_8_)"/><path d="m26.39 419.965 23.137-50.495 35.861-5.952-31.998 56.447z" fill="url(#SVGID_9_)"/><path d="m49.527 369.47-26-56.742 36.873-2.999 16.127 59.741z" fill="url(#SVGID_10_)"/><path d="m26.39 92.036 27.274-12.498h27l-23.5 20.733z" fill="url(#SVGID_11_)"/><path d="m23.527 199.255 26-56.734 38.885-11.886-37.885 68.62z" fill="url(#SVGID_12_)"/><path d="m49.527 142.521-23.137-50.485h27l37.081 50.485z" fill="url(#SVGID_13_)"/><path d="m184.485 0h-57.185c-24.902 0-35.089 20.187-35.089 45.088v392.879l97.655 16.469c-12.001-124.74-25.325-454.436-5.381-454.436z" fill="url(#SVGID_14_)"/><path d="m92.211 443.255c0 24.902 20.187 45.088 45.089 45.088h47.185c-4.958 0-8.93-19.362-11.913-50.376h-80.36v5.288z" fill="url(#SVGID_15_)"/><path d="m364.515 488.344h-180.03c-24.902 0-45.088-20.187-45.088-45.088v-398.168c-.001-24.901 20.186-45.088 45.088-45.088h180.031c24.902 0 45.088 20.187 45.088 45.088v398.167c0 24.902-20.187 45.089-45.089 45.089z" fill="url(#SVGID_16_)"/><path d="m184.484 465.47c-12.249 0-22.215-9.966-22.215-22.215v-398.166c0-12.249 9.966-22.215 22.215-22.215h180.031c12.249 0 22.215 9.966 22.215 22.215v398.166c0 12.249-9.966 22.215-22.215 22.215z" fill="url(#SVGID_17_)"/><circle cx="187.034" cy="47.638" fill="url(#SVGID_18_)" r="12.654"/><path d="m251.141 512c106.639 0 193.086-10.591 193.086-23.656h-386.172c0 13.065 86.448 23.656 193.086 23.656z" fill="url(#SVGID_19_)"/><path d="m23.527 312.728 26-56.736h27l-14.715 56.736z" fill="url(#SVGID_20_)"/><path d="m49.527 255.992-26-56.737h27l26 56.737z" fill="url(#SVGID_21_)"/><path d="m80.664 432.461 28.863-62.991-26-56.742 26-56.736-26-56.737 26-56.734-28.863-62.983-27.274 12.498 23.137 50.485-26 56.734 26 56.737-26 56.736 26 56.742-23.137 50.495z" fill="url(#SVGID_22_)"/></g></svg>