<svg id="Capa_1" enable-background="new 0 0 512 512" height="512" viewBox="0 0 512 512" width="512" xmlns="http://www.w3.org/2000/svg" xmlns:xlink="http://www.w3.org/1999/xlink"><radialGradient id="SVGID_1_" cx="269" cy="1168.154" gradientTransform="matrix(.931 0 0 .112 -2.094 356.92)" gradientUnits="userSpaceOnUse" r="208.575"><stop offset="0" stop-color="#f9efaf"/><stop offset=".2558" stop-color="#fcf5cb"/><stop offset=".4962" stop-color="#fff9e2"/><stop offset=".888" stop-color="#fff"/></radialGradient><linearGradient id="lg1"><stop offset="0" stop-color="#f6e781"/><stop offset=".4756" stop-color="#f5e056"/><stop offset=".65" stop-color="#f4dd45"/><stop offset=".9873" stop-color="#f1d334"/><stop offset="1" stop-color="#f1d333"/></linearGradient><radialGradient id="SVGID_2_" cx="195.099" cy="452.753" gradientTransform="matrix(1 0 0 .52 0 217.129)" gradientUnits="userSpaceOnUse" r="59.572" xlink:href="#lg1"/><linearGradient id="lg2"><stop offset="0" stop-color="#fffbe4"/><stop offset=".5544" stop-color="#f9efaf"/><stop offset=".6285" stop-color="#f8eea7"/><stop offset="1" stop-color="#f6e781"/></linearGradient><radialGradient id="SVGID_3_" cx="198.358" cy="404.73" gradientUnits="userSpaceOnUse" r="56.822" xlink:href="#lg2"/><radialGradient id="SVGID_4_" cx="302.158" cy="74.381" gradientUnits="userSpaceOnUse" r="37.709" xlink:href="#lg1"/><radialGradient id="SVGID_5_" cx="187.512" cy="8.367" gradientUnits="userSpaceOnUse" r="73.681" xlink:href="#lg2"/><radialGradient id="SVGID_6_" cx="275.381" cy="336.086" gradientTransform="matrix(.916 .402 -.479 1.092 184.321 -141.548)" gradientUnits="userSpaceOnUse" r="380.7" xlink:href="#lg2"/><radialGradient id="SVGID_7_" cx="144.713" cy="83.1" gradientUnits="userSpaceOnUse" r="223.847" xlink:href="#lg2"/><linearGradient id="lg3"><stop offset="0" stop-color="#f4dd45"/><stop offset=".5291" stop-color="#edc530"/><stop offset=".5774" stop-color="#ecc32e"/><stop offset=".8843" stop-color="#e6a527"/><stop offset="1" stop-color="#e49824"/></linearGradient><radialGradient id="SVGID_8_" cx="318.892" cy="491.951" gradientUnits="userSpaceOnUse" r="95.611" xlink:href="#lg3"/><radialGradient id="SVGID_9_" cx="470.183" cy="334.658" gradientTransform="matrix(.916 .402 -.479 1.092 200.069 -219.725)" gradientUnits="userSpaceOnUse" r="391.167" xlink:href="#lg3"/><radialGradient id="SVGID_10_" cx="384.503" cy="117.922" gradientUnits="userSpaceOnUse" r="63.479"><stop offset="0" stop-color="#e4989d"/><stop offset=".1925" stop-color="#e38d93"/><stop offset=".5311" stop-color="#df6f79"/><stop offset=".6532" stop-color="#dd636e"/><stop offset="1" stop-color="#da4a54"/></radialGradient><radialGradient id="SVGID_11_" cx="387.752" cy="67.081" gradientUnits="userSpaceOnUse" r="64.376"><stop offset="0" stop-color="#fbe2dd"/><stop offset=".5145" stop-color="#eab1b7"/><stop offset="1" stop-color="#e4989d"/></radialGradient><radialGradient id="SVGID_12_" cx="476.598" cy="123.318" gradientTransform="matrix(-1 0 0 -1.049 953.195 252.707)" gradientUnits="userSpaceOnUse" r="90.842"><stop offset=".0988" stop-color="#dd636e"/><stop offset=".5649" stop-color="#d82e3d"/><stop offset=".6885" stop-color="#d32e3b"/><stop offset=".8402" stop-color="#c42f37"/><stop offset="1" stop-color="#ac3030"/></radialGradient><g><path d="m250.994 512c111.762 0 202.363-11.1 202.363-24.793h-404.726c0 13.693 90.601 24.793 202.363 24.793z" fill="url(#SVGID_1_)"/><path d="m270.88 440.02-81.529 10.584c-.296 19.752 15.667 36.603 36.142 36.603h61.015c-10.549 0-13.582-28.364-15.628-47.187z" fill="url(#SVGID_2_)"/><path d="m267.974 406.944-74.544 17.413-3.548 20.572c-.329 1.91-.503 3.806-.531 5.676h79.837c-2.301-21.171-1.214-43.661-1.214-43.661z" fill="url(#SVGID_3_)"/><path d="m237.493 70.479c11.376 0 20.598-9.222 20.598-20.598s-9.222-20.598-20.598-20.598h49.015c11.376 0 20.598 9.222 20.598 20.598s-9.222 20.598-20.598 20.598z" fill="url(#SVGID_4_)"/><path d="m181.834 73.986c-4.631-8.354-6.935-18.168-6.027-28.563 1.742-19.945 18.795-45.423 49.621-45.423h61.015c-30.826 0-40.122 73.293-35.491 81.647z" fill="url(#SVGID_5_)"/><path d="m10.591 424.357h61.015l146.754-132.627-143.524 21.352z" fill="url(#SVGID_6_)"/><path d="m181.834 73.986c-61.916 18.718-106.998 76.214-106.998 144.237v94.859h108.025l59.988-239.095h-61.015z" fill="url(#SVGID_7_)"/><path d="m318.57 424.357-32.062-10.354-32.062 10.354-3.548 20.572c-3.81 22.087 13.198 42.278 35.611 42.278 22.413 0 39.42-20.192 35.611-42.278z" fill="url(#SVGID_8_)"/><path d="m437.164 313.082v-94.859c0-68.023-45.082-125.519-106.998-144.236 4.631-8.354 6.935-18.168 6.027-28.563-1.742-19.946-18.795-45.424-49.621-45.424-.022 0-.043 0-.065 0s-.043 0-.065 0c-30.826 0-47.879 25.478-49.621 45.423-.908 10.395 1.396 20.21 6.027 28.563-61.915 18.718-106.997 76.214-106.997 144.237v94.859l-64.245 111.275h429.802zm-150.657-242.603c-11.376 0-20.599-9.222-20.599-20.598s9.222-20.598 20.599-20.598c11.376 0 20.598 9.222 20.598 20.598.001 11.376-9.221 20.598-20.598 20.598z" fill="url(#SVGID_9_)"/><path d="m425.34 104.387-44.611 9.495c0 26.298 21.319 47.618 47.618 47.618h11.369c-13.15-.001-14.376-33.304-14.376-57.113z" fill="url(#SVGID_10_)"/><path d="m408.967 66.264c-17.997 0-33.661 9.984-41.758 24.716 5.243 3.332 10.265 6.98 15.041 10.916-.993 3.83-1.522 7.846-1.522 11.986h39.263c0-23.809 6.575-47.617 19.724-47.617h-30.748z" fill="url(#SVGID_11_)"/><circle cx="439.715" cy="113.882" fill="url(#SVGID_12_)" r="47.618"/></g></svg>