<svg id="Capa_1" enable-background="new 0 0 512 512" height="512" viewBox="0 0 512 512" width="512" xmlns="http://www.w3.org/2000/svg" xmlns:xlink="http://www.w3.org/1999/xlink"><radialGradient id="SVGID_1_" cx="301.537" cy="460.724" gradientTransform="matrix(.931 0 0 .112 -38.569 405.629)" gradientUnits="userSpaceOnUse" r="208.322"><stop offset="0" stop-color="#daefc8"/><stop offset=".0104" stop-color="#daefc9"/><stop offset=".4962" stop-color="#eaf6df"/><stop offset=".888" stop-color="#fff"/></radialGradient><linearGradient id="lg1"><stop offset="0" stop-color="#cbe7af"/><stop offset=".6123" stop-color="#add984"/><stop offset=".6651" stop-color="#aad880"/><stop offset=".9268" stop-color="#9fd26f"/><stop offset="1" stop-color="#9bd069"/></linearGradient><radialGradient id="SVGID_2_" cx="70.829" cy="432.006" gradientTransform="matrix(1 0 0 .415 0 252.695)" gradientUnits="userSpaceOnUse" r="74.802" xlink:href="#lg1"/><radialGradient id="SVGID_3_" cx="76.331" cy="431.116" gradientTransform="matrix(-1 0 0 -.992 152.662 858.841)" gradientUnits="userSpaceOnUse" r="57.104" xlink:href="#lg1"/><radialGradient id="SVGID_4_" cx="2.705" cy="354.612" gradientTransform="matrix(1 0 0 .47 0 188.096)" gradientUnits="userSpaceOnUse" r="99.661" xlink:href="#lg1"/><radialGradient id="SVGID_5_" cx="-7.896" cy="96.776" gradientUnits="userSpaceOnUse" r="275.189"><stop offset="0" stop-color="#e7f6ec"/><stop offset=".5145" stop-color="#daefc8"/><stop offset="1" stop-color="#cbe7af"/></radialGradient><radialGradient id="SVGID_6_" cx="364.163" cy="253.748" gradientUnits="userSpaceOnUse" r="375.69"><stop offset="0" stop-color="#aad880"/><stop offset=".0981" stop-color="#a3d576"/><stop offset=".4843" stop-color="#8bc852"/><stop offset=".8405" stop-color="#65a15c"/><stop offset="1" stop-color="#528e61"/></radialGradient><radialGradient id="SVGID_7_" cx="342.789" cy="255.61" gradientUnits="userSpaceOnUse" r="354.778"><stop offset=".0353" stop-color="#dfdde2"/><stop offset=".2285" stop-color="#d5d2d8"/><stop offset=".5685" stop-color="#b9b4bd"/><stop offset=".6715" stop-color="#afaab4"/><stop offset="1" stop-color="#a298a5"/></radialGradient><radialGradient id="SVGID_8_" cx="402.354" cy="85.435" gradientUnits="userSpaceOnUse" r="67.687"><stop offset="0" stop-color="#e4989d"/><stop offset=".1925" stop-color="#e38d93"/><stop offset=".5311" stop-color="#df6f79"/><stop offset=".6532" stop-color="#dd636e"/><stop offset="1" stop-color="#da4a54"/></radialGradient><radialGradient id="SVGID_9_" cx="402.076" cy="39.515" gradientUnits="userSpaceOnUse" r="95.631"><stop offset="0" stop-color="#fbe2dd"/><stop offset=".5145" stop-color="#eab1b7"/><stop offset="1" stop-color="#e4989d"/></radialGradient><radialGradient id="SVGID_10_" cx="500.553" cy="91.189" gradientTransform="matrix(-1 0 0 -1.049 1001.107 186.867)" gradientUnits="userSpaceOnUse" r="96.864"><stop offset=".0988" stop-color="#dd636e"/><stop offset=".5649" stop-color="#d82e3d"/><stop offset=".6885" stop-color="#d32e3b"/><stop offset=".8402" stop-color="#c42f37"/><stop offset="1" stop-color="#ac3030"/></radialGradient><g><path d="m244.822 481.647c111.627 0 202.118-11.087 202.118-24.763h-404.235c0 13.676 90.491 24.763 202.117 24.763z" fill="url(#SVGID_1_)"/><path d="m67.337 438.487v8.727c0 5.818 4.76 9.671 9.721 9.671h53.379c-4.962 0 0-7.198 0-13.016l-4.748-14.425z" fill="url(#SVGID_2_)"/><path d="m132.925 368.855-65.588 16.654v52.978h54.739z" fill="url(#SVGID_3_)"/><path d="m74.145 336.526-74.145 21.703v12.15c0 8.356 6.774 15.13 15.13 15.13h53.38c-1.631 0 6.629-32.157 5.635-48.983z" fill="url(#SVGID_4_)"/><path d="m68.51 81.127h-53.38c-8.356 0-15.13 6.775-15.13 15.131v261.971h64.572c-4.1-69.379-2.788-277.102 3.938-277.102z" fill="url(#SVGID_5_)"/><path d="m446.074 81.127h-377.564c-8.356 0-15.13 6.774-15.13 15.13v274.121c0 8.356 6.774 15.13 15.13 15.13h52.207v61.704c0 8.599 10.396 12.905 16.476 6.825l68.529-68.529h240.353c8.356 0 15.13-6.774 15.13-15.13v-274.12c0-8.356-6.774-15.131-15.131-15.131z" fill="url(#SVGID_6_)"/><path d="m178.67 233.837c0 22.611-18.33 40.94-40.94 40.94s-40.94-18.33-40.94-40.94 18.33-40.94 40.94-40.94 40.94 18.329 40.94 40.94zm78.622-40.941c-22.611 0-40.94 18.33-40.94 40.94s18.33 40.94 40.94 40.94c22.611 0 40.94-18.33 40.94-40.94s-18.329-40.94-40.94-40.94zm119.563 0c-22.611 0-40.94 18.33-40.94 40.94s18.33 40.94 40.94 40.94 40.94-18.33 40.94-40.94-18.329-40.94-40.94-40.94z" fill="url(#SVGID_7_)"/><path d="m445.897 71.003-47.569 10.124c0 28.042 22.732 50.774 50.774 50.774h12.123c-14.02.001-15.328-35.511-15.328-60.898z" fill="url(#SVGID_8_)"/><path d="m461.226 30.353h-24.246c-28.042 0-50.774 22.732-50.774 50.774h53.989c0-25.387 7.01-50.774 21.031-50.774z" fill="url(#SVGID_9_)"/><circle cx="461.226" cy="81.128" fill="url(#SVGID_10_)" r="50.774"/></g></svg>