<svg id="Capa_1" enable-background="new 0 0 511.998 511.998" height="512" viewBox="0 0 511.998 511.998" width="512" xmlns="http://www.w3.org/2000/svg" xmlns:xlink="http://www.w3.org/1999/xlink"><radialGradient id="SVGID_1_" cx="352.552" cy="2423.647" gradientTransform="matrix(.931 0 0 .112 -75.044 178.854)" gradientUnits="userSpaceOnUse" r="219.323"><stop offset="0" stop-color="#c6c1c8"/><stop offset=".2432" stop-color="#dddbdf"/><stop offset=".4962" stop-color="#f1f1f4"/><stop offset=".888" stop-color="#fff"/></radialGradient><radialGradient id="SVGID_2_" cx="234.927" cy="49.179" gradientTransform="matrix(1 0 0 -1 0 485.928)" gradientUnits="userSpaceOnUse" r="243.522"><stop offset=".0353" stop-color="#dfdde2"/><stop offset=".2285" stop-color="#d5d2d8"/><stop offset=".5685" stop-color="#b9b4bd"/><stop offset=".6715" stop-color="#afaab4"/><stop offset="1" stop-color="#a298a5"/></radialGradient><radialGradient id="SVGID_3_" cx="248.434" cy="36.599" gradientUnits="userSpaceOnUse" r="155.741"><stop offset="0" stop-color="#fff"/><stop offset=".0652" stop-color="#fdfdfd"/><stop offset=".5145" stop-color="#f1f1f4"/><stop offset=".9782" stop-color="#dfdde2"/></radialGradient><radialGradient id="SVGID_4_" cx="13.633" cy="413.069" gradientTransform="matrix(1 0 0 -1 0 485.928)" gradientUnits="userSpaceOnUse" r="202.008"><stop offset="0" stop-color="#f4fbff"/><stop offset=".5145" stop-color="#cbe2ff"/><stop offset="1" stop-color="#bed8fb"/></radialGradient><radialGradient id="SVGID_5_" cx="439.186" cy="219.749" gradientTransform="matrix(1 0 0 -1 0 485.928)" gradientUnits="userSpaceOnUse" r="455.5"><stop offset="0" stop-color="#dfdde2"/><stop offset=".2772" stop-color="#c9c6cd"/><stop offset=".5584" stop-color="#afaab4"/><stop offset=".8574" stop-color="#a79fab"/><stop offset="1" stop-color="#a298a5"/></radialGradient><radialGradient id="SVGID_6_" cx="189.227" cy="360.275" gradientTransform="matrix(1 -.005 -.005 -1.057 1.746 507.233)" gradientUnits="userSpaceOnUse" r="193.97"><stop offset="0" stop-color="#80b4fb"/><stop offset=".1461" stop-color="#7aaffb"/><stop offset=".3416" stop-color="#69a1fa"/><stop offset=".5158" stop-color="#5490f9"/><stop offset="1" stop-color="#407093"/></radialGradient><g><path d="m255.998 475.461c117.521 0 212.791-11.672 212.791-26.07h-425.582c0 14.398 95.27 26.07 212.791 26.07z" fill="url(#SVGID_1_)"/><path d="m171.474 238.186c21.16 0 39.681 14.212 45.157 34.651l47.308 176.554h56.21l-7.292-186.289c-5.476-20.439-61.852-52.518-83.012-52.518z" fill="url(#SVGID_2_)"/><path d="m308.363 36.537c-29.385 0-55.874 12.33-74.634 32.074l68.751 25.926c18.76-19.744 32.708-58 62.093-58z" fill="url(#SVGID_3_)"/><path d="m0 36.537v201.649h56.21l12.3-98.248-12.3-103.401z" fill="url(#SVGID_4_)"/><path d="m511.998 261.126v22.301c0 12.67-10.271 22.94-22.94 22.94h-113.647v87.761c0 30.52-24.742 55.262-55.262 55.262l-47.308-176.554c-5.476-20.439-23.998-34.651-45.157-34.651h-57.367l-25.568-83.514 25.568-86.061h119.623c18.76-19.744 45.249-32.074 74.634-32.074h114.76c12.67 0 22.94 10.271 22.94 22.94v19.404c0 12.67-10.271 22.94-22.94 22.94h9.724c12.67 0 22.94 10.271 22.94 22.94v22.301c0 12.67-10.271 22.94-22.94 22.94h-5.838 5.838c12.67 0 22.94 10.271 22.94 22.94v22.301c0 12.67-10.271 22.94-22.94 22.94h-5.838 5.838c12.669.004 22.94 10.275 22.94 22.944z" fill="url(#SVGID_5_)"/><path d="m56.21 36.537h114.107v201.649h-114.107z" fill="url(#SVGID_6_)"/></g></svg>