<svg id="Capa_1" enable-background="new 0 0 512 512" height="512" viewBox="0 0 512 512" width="512" xmlns="http://www.w3.org/2000/svg" xmlns:xlink="http://www.w3.org/1999/xlink"><linearGradient id="lg1"><stop offset=".015" stop-color="#bed8fb"/><stop offset=".4762" stop-color="#93bffb"/><stop offset=".6651" stop-color="#80b4fb"/><stop offset=".8679" stop-color="#6faafa"/><stop offset="1" stop-color="#61a2f9"/></linearGradient><radialGradient id="SVGID_1_" cx="210.15" cy="235.86" gradientTransform="matrix(1 0 0 .658 0 80.759)" gradientUnits="userSpaceOnUse" r="160.323" xlink:href="#lg1"/><linearGradient id="lg2"><stop offset="0" stop-color="#f4fbff"/><stop offset=".5145" stop-color="#cbe2ff"/><stop offset="1" stop-color="#bed8fb"/></linearGradient><radialGradient id="SVGID_2_" cx="209.66" cy="187.605" gradientUnits="userSpaceOnUse" r="72.856" xlink:href="#lg2"/><radialGradient id="SVGID_3_" cx="347.375" cy="293.33" gradientUnits="userSpaceOnUse" r="180.883"><stop offset=".015" stop-color="#bed8fb"/><stop offset=".3926" stop-color="#93bffb"/><stop offset=".5473" stop-color="#80b4fb"/><stop offset=".8214" stop-color="#6faafa"/><stop offset="1" stop-color="#61a2f9"/></radialGradient><radialGradient id="SVGID_4_" cx="211.475" cy="482.773" gradientUnits="userSpaceOnUse" r="64.949" xlink:href="#lg1"/><radialGradient id="SVGID_5_" cx="217.828" cy="-2.292" gradientUnits="userSpaceOnUse" r="114.591" xlink:href="#lg2"/><radialGradient id="SVGID_6_" cx="143.639" cy="73.939" gradientUnits="userSpaceOnUse" r="135.912" xlink:href="#lg2"/><radialGradient id="SVGID_7_" cx="29.973" cy="213.015" gradientUnits="userSpaceOnUse" r="61.499" xlink:href="#lg1"/><radialGradient id="SVGID_8_" cx="143.412" cy="421.516" gradientUnits="userSpaceOnUse" r="136.547" xlink:href="#lg1"/><radialGradient id="SVGID_9_" cx="445.554" cy="289.906" gradientUnits="userSpaceOnUse" r="454.42"><stop offset="0" stop-color="#80b4fb"/><stop offset=".4653" stop-color="#5490f9"/><stop offset=".5531" stop-color="#528df1"/><stop offset=".6907" stop-color="#4e86db"/><stop offset=".8599" stop-color="#477bb6"/><stop offset="1" stop-color="#407093"/></radialGradient><radialGradient id="SVGID_10_" cx="366.39" cy="3118.667" gradientTransform="matrix(.931 0 0 .112 -75.044 125.221)" gradientUnits="userSpaceOnUse" r="198.363"><stop offset="0" stop-color="#cbe2ff"/><stop offset=".1435" stop-color="#d6e8ff"/><stop offset=".4962" stop-color="#ecf4ff"/><stop offset=".888" stop-color="#fff"/></radialGradient><g><path d="m267.514 223.678-106.256 20.532c0 37.532 30.426 67.958 67.958 67.958h53.568c-18.766.001-15.27-54.511-15.27-88.49z" fill="url(#SVGID_1_)"/><path d="m282.784 176.252h-53.568c-37.532 0-67.958 30.426-67.958 67.958h93.377c0-33.979 9.383-67.958 28.149-67.958z" fill="url(#SVGID_2_)"/><path d="m229.216 121.203c67.935 0 123.008 55.072 123.008 123.008 0 67.935-55.073 123.008-123.008 123.008h53.568c67.935 0 146.721-55.073 146.721-123.008 0-67.936-78.785-123.008-146.721-123.008z" fill="url(#SVGID_3_)"/><path d="m204.348 417.635v55.791h53.569l16.584-72.375z" fill="url(#SVGID_4_)"/><path d="m201.914 14.995v56.154l60.684 13.226-7.116-69.38z" fill="url(#SVGID_5_)"/><path d="m201.914 71.149c-75.694 11.846-135.318 72.16-146.123 148.194l65.387 18.49c10.805-76.034 58.611-154.838 134.305-166.684z" fill="url(#SVGID_6_)"/><path d="m0 219.343v52.169h53.568l11.798-26.084-11.798-26.085z" fill="url(#SVGID_7_)"/><path d="m56.154 271.512c11.846 75.694 72.161 135.318 148.194 146.123h53.568c-76.034-10.805-129.884-81.055-141.73-156.749z" fill="url(#SVGID_8_)"/><path d="m350.742 244.211c0 37.532-30.426 67.958-67.958 67.958s-67.958-30.426-67.958-67.958 30.426-67.958 67.958-67.958 67.958 30.425 67.958 67.958zm161.258 24.867h-55.791c-10.805 76.034-70.43 136.348-146.123 148.194v56.155h-52.169v-55.791c-76.034-10.805-136.348-70.429-148.194-146.123h-56.155v-52.169h55.791c10.805-76.034 70.429-136.348 146.123-148.194v-56.155h52.169v55.791c76.034 10.805 136.349 70.429 148.194 146.123h56.155zm-106.208-24.867c0-67.936-55.073-123.008-123.008-123.008s-123.008 55.072-123.008 123.008c0 67.935 55.073 123.008 123.008 123.008s123.008-55.073 123.008-123.008z" fill="url(#SVGID_9_)"/><path d="m268.633 497.005c106.29 0 192.456-10.557 192.456-23.579h-384.912c0 13.023 86.165 23.579 192.456 23.579z" fill="url(#SVGID_10_)"/></g></svg>