<svg id="Capa_1" enable-background="new 0 0 512 512" height="512" viewBox="0 0 512 512" width="512" xmlns="http://www.w3.org/2000/svg" xmlns:xlink="http://www.w3.org/1999/xlink"><linearGradient id="lg1"><stop offset="0" stop-color="#fff"/><stop offset=".0652" stop-color="#fdfdfd"/><stop offset=".5145" stop-color="#f1f1f4"/><stop offset=".9782" stop-color="#dfdde2"/></linearGradient><radialGradient id="SVGID_1_" cx="412.194" cy="291.341" gradientUnits="userSpaceOnUse" r="67.433" xlink:href="#lg1"/><linearGradient id="lg2"><stop offset=".0353" stop-color="#dfdde2"/><stop offset=".1942" stop-color="#d5d2d8"/><stop offset=".4737" stop-color="#b9b4bd"/><stop offset=".5585" stop-color="#afaab4"/><stop offset=".8891" stop-color="#a69daa"/><stop offset="1" stop-color="#a298a5"/></linearGradient><radialGradient id="SVGID_2_" cx="403.966" cy="303.741" gradientUnits="userSpaceOnUse" r="53.685" xlink:href="#lg2"/><radialGradient id="SVGID_3_" cx="412.194" cy="381.883" gradientUnits="userSpaceOnUse" r="67.433" xlink:href="#lg1"/><radialGradient id="SVGID_4_" cx="405.025" cy="390.472" gradientUnits="userSpaceOnUse" r="53.685" xlink:href="#lg2"/><radialGradient id="SVGID_5_" cx="281.347" cy="357.406" gradientUnits="userSpaceOnUse" r="42.881" xlink:href="#lg1"/><linearGradient id="lg3"><stop offset=".0353" stop-color="#dfdde2"/><stop offset=".2285" stop-color="#d5d2d8"/><stop offset=".5685" stop-color="#b9b4bd"/><stop offset=".6715" stop-color="#afaab4"/><stop offset="1" stop-color="#a298a5"/></linearGradient><radialGradient id="SVGID_6_" cx="313.446" cy="332.606" gradientUnits="userSpaceOnUse" r="45.998" xlink:href="#lg3"/><radialGradient id="SVGID_7_" cx="344.981" cy="422.854" gradientUnits="userSpaceOnUse" r="69.052" xlink:href="#lg2"/><radialGradient id="SVGID_8_" cx="336.816" cy="243.875" gradientUnits="userSpaceOnUse" r="62.738" xlink:href="#lg1"/><radialGradient id="SVGID_9_" cx="286.135" cy="282.118" gradientUnits="userSpaceOnUse" r="29.283" xlink:href="#lg1"/><radialGradient id="SVGID_10_" cx="272.469" cy="389.417" gradientUnits="userSpaceOnUse" r="42.843" xlink:href="#lg3"/><radialGradient id="SVGID_11_" cx="431.611" cy="352.807" gradientUnits="userSpaceOnUse" r="207.35"><stop offset="0" stop-color="#dfdde2"/><stop offset=".1471" stop-color="#d8d6db"/><stop offset=".3669" stop-color="#c5c1c9"/><stop offset=".5584" stop-color="#afaab4"/><stop offset=".7551" stop-color="#a69eaa"/><stop offset=".9522" stop-color="#a298a5"/></radialGradient><linearGradient id="lg4"><stop offset="0" stop-color="#bed8fb"/><stop offset=".4718" stop-color="#93bffb"/><stop offset=".6651" stop-color="#80b4fb"/><stop offset=".8679" stop-color="#6faafa"/><stop offset="1" stop-color="#61a2f9"/></linearGradient><radialGradient id="SVGID_12_" cx="42.618" cy="430.833" gradientUnits="userSpaceOnUse" r="89.715" xlink:href="#lg4"/><radialGradient id="SVGID_13_" cx="2171.027" cy="1391.264" gradientTransform="matrix(0 1 -1 0 1576 -2107.811)" gradientUnits="userSpaceOnUse" r="300.39"><stop offset="0" stop-color="#f4fbff"/><stop offset=".5145" stop-color="#cbe2ff"/><stop offset="1" stop-color="#bed8fb"/></radialGradient><radialGradient id="SVGID_14_" cx="2310.64" cy="1231.162" gradientTransform="matrix(0 1 -1 0 1576 -2107.811)" gradientUnits="userSpaceOnUse" r="86.351" xlink:href="#lg4"/><radialGradient id="SVGID_15_" cx="2429.408" cy="1225.878" gradientTransform="matrix(0 1 -1 0 1576 -2107.811)" gradientUnits="userSpaceOnUse" r="350.727"><stop offset="0" stop-color="#80b4fb"/><stop offset=".1461" stop-color="#7aaffb"/><stop offset=".3416" stop-color="#69a1fa"/><stop offset=".5158" stop-color="#5490f9"/><stop offset="1" stop-color="#407093"/></radialGradient><radialGradient id="SVGID_16_" cx="273.865" cy="810.306" gradientTransform="matrix(.931 0 0 .112 -2.094 379.183)" gradientUnits="userSpaceOnUse" r="247.626"><stop offset="0" stop-color="#cbe2ff"/><stop offset=".1435" stop-color="#d6e8ff"/><stop offset=".4962" stop-color="#ecf4ff"/><stop offset=".888" stop-color="#fff"/></radialGradient><g><path d="m360.207 315.824 22.95 5.164 43.987-30.56-15.116-4.523z" fill="url(#SVGID_1_)"/><path d="m360.207 265.032 43.987 25.396h22.95l-43.987-31.649z" fill="url(#SVGID_2_)"/><path d="m360.207 406.366 22.95 5.164 43.987-30.559-15.116-4.523z" fill="url(#SVGID_3_)"/><path d="m360.207 355.575 43.987 25.396h22.95l-43.987-31.649z" fill="url(#SVGID_4_)"/><path d="m264.582 371.033 31.021 5.813 56.741-43.945-26.562 2.798z" fill="url(#SVGID_5_)"/><path d="m264.582 300.366 61.2 35.333h22.95l-55.203-42.316z" fill="url(#SVGID_6_)"/><path d="m337.257 446.118v-90.544l27.812-3.093-4.862 93.637z" fill="url(#SVGID_7_)"/><path d="m337.257 315.824v-90.543h22.95l4.862 94.54z" fill="url(#SVGID_8_)"/><path d="m276.057 280.49h22.95l-1.331 12.374-10.144 7.502h-22.95z" fill="url(#SVGID_9_)"/><path d="m264.582 371.033 11.475 19.875h22.95l-11.475-19.875z" fill="url(#SVGID_10_)"/><path d="m473.045 290.428-112.838-65.147v90.543l-61.199-35.333-11.475 19.875 61.199 35.333-61.199 35.334 11.475 19.875 61.199-35.334v90.543l112.838-65.147-78.412-45.272zm-89.888-25.396 43.987 25.396-43.987 25.396zm0 141.335v-50.793l43.987 25.396z" fill="url(#SVGID_11_)"/><path d="m50.18 452.705c10.956 11.16 25.434 16.746 39.918 16.746h55.663s.158-25.634-5.071-43.805l-101.614 14.617c3.483 4.298 7.186 8.452 11.104 12.442z" fill="url(#SVGID_12_)"/><path d="m143.99 231.39c60.708-122.566 222.246-218.276 228.527-218.276h-55.663c-11.614 0-23.311 1.156-34.924 3.519-140.263 28.529-249.883 138.148-278.412 278.41-10.493 51.588 2.809 104.81 35.557 145.219h94.349c-13.007-45.192-26.205-134.634 10.566-208.872z" fill="url(#SVGID_13_)"/><path d="m367.313 195.834c-14.253 0-28.428-6.382-37.821-18.819l-23.821-31.544c-12.241-16.209-34.496-21.686-52.46-12.205l56.745-19.278c17.963-9.481 50.32 6.894 62.56 23.103l18.537 29.704c9.392 12.437 17.669 29.039 31.922 29.039z" fill="url(#SVGID_14_)"/><path d="m219.563 342.607-31.535-23.814c-16.206-12.238-21.694-34.487-12.223-52.451.26-.494.531-.983.811-1.47 31.327-54.307 76.497-99.477 130.804-130.804.481-.277.965-.545 1.454-.803 17.963-9.481 40.219-4.005 52.46 12.205l23.821 31.544c17.33 22.948 50.945 25.282 71.279 4.948l39.172-39.172c21.992-21.991 21.841-57.708-.352-79.496-41.512-40.754-100.587-58.271-157.662-46.661-140.263 28.529-249.882 138.148-278.411 278.41-11.609 57.075 5.908 116.15 46.661 157.662 21.788 22.193 57.504 22.344 79.496.352l39.172-39.172c20.335-20.333 18.002-53.949-4.947-71.278z" fill="url(#SVGID_15_)"/><path d="m256 498.886c132.687 0 240.251-13.178 240.251-29.435h-480.502c0 16.257 107.564 29.435 240.251 29.435z" fill="url(#SVGID_16_)"/></g></svg>