<svg id="Capa_1" enable-background="new 0 0 512 512" height="512" viewBox="0 0 512 512" width="512" xmlns="http://www.w3.org/2000/svg" xmlns:xlink="http://www.w3.org/1999/xlink"><linearGradient id="lg1"><stop offset=".0353" stop-color="#dfdde2"/><stop offset=".2285" stop-color="#d5d2d8"/><stop offset=".5685" stop-color="#b9b4bd"/><stop offset=".6715" stop-color="#afaab4"/><stop offset="1" stop-color="#a298a5"/></linearGradient><radialGradient id="SVGID_1_" cx="133.053" cy="96.48" gradientUnits="userSpaceOnUse" r="117.346" xlink:href="#lg1"/><radialGradient id="SVGID_2_" cx="187.435" cy="18.901" gradientUnits="userSpaceOnUse" r="89.911"><stop offset="0" stop-color="#fff"/><stop offset=".0652" stop-color="#fdfdfd"/><stop offset=".5145" stop-color="#f1f1f4"/><stop offset=".9782" stop-color="#dfdde2"/></radialGradient><radialGradient id="SVGID_3_" cx="309.17" cy="130.808" gradientUnits="userSpaceOnUse" r="140.343" xlink:href="#lg1"/><linearGradient id="lg2"><stop offset="0" stop-color="#dfdde2"/><stop offset=".2772" stop-color="#c9c6cd"/><stop offset=".5584" stop-color="#afaab4"/><stop offset=".8574" stop-color="#a79fab"/><stop offset="1" stop-color="#a298a5"/></linearGradient><radialGradient id="SVGID_4_" cx="330.162" cy="118.469" gradientUnits="userSpaceOnUse" r="206.602" xlink:href="#lg2"/><radialGradient id="SVGID_5_" cx="12.93" cy="420.575" gradientUnits="userSpaceOnUse" r="176.668"><stop offset=".015" stop-color="#bed8fb"/><stop offset=".4762" stop-color="#93bffb"/><stop offset=".6651" stop-color="#80b4fb"/><stop offset=".8679" stop-color="#6faafa"/><stop offset="1" stop-color="#61a2f9"/></radialGradient><radialGradient id="SVGID_6_" cx="28.827" cy="235.672" gradientTransform="matrix(1 0 0 2.078 0 -254.001)" gradientUnits="userSpaceOnUse" r="113.725"><stop offset="0" stop-color="#f4fbff"/><stop offset=".5145" stop-color="#cbe2ff"/><stop offset="1" stop-color="#bed8fb"/></radialGradient><radialGradient id="SVGID_7_" cx="100.353" cy="430.908" gradientUnits="userSpaceOnUse" r="269.345" xlink:href="#lg2"/><radialGradient id="SVGID_8_" cx="454.671" cy="358.266" gradientTransform="matrix(-1 0 0 -1.128 909.343 762.546)" gradientUnits="userSpaceOnUse" r="467.275"><stop offset="0" stop-color="#80b4fb"/><stop offset=".5158" stop-color="#5490f9"/><stop offset="1" stop-color="#407093"/></radialGradient><radialGradient id="SVGID_9_" cx="411.941" cy="296.125" gradientTransform="matrix(1 0 0 -1 0 627.685)" gradientUnits="userSpaceOnUse" r="308.472"><stop offset="0" stop-color="#aad880"/><stop offset=".0981" stop-color="#a3d576"/><stop offset=".4843" stop-color="#8bc852"/><stop offset=".8405" stop-color="#65a15c"/><stop offset="1" stop-color="#528e61"/></radialGradient><radialGradient id="SVGID_10_" cx="405.868" cy="2158.17" gradientTransform="matrix(.931 0 0 .112 -111.519 247.861)" gradientUnits="userSpaceOnUse" r="195.474"><stop offset="0" stop-color="#cbe2ff"/><stop offset=".1435" stop-color="#d6e8ff"/><stop offset=".4962" stop-color="#ecf4ff"/><stop offset=".888" stop-color="#fff"/></radialGradient><g><path d="m148.596 95.737v49.292h46.668s14.215-34.228 25.448-61.397l-72.115 11.859c0 .082-.001.164-.001.246z" fill="url(#SVGID_1_)"/><path d="m291.001 0h-46.668c-52.792 0-95.604 42.73-95.736 95.492h64.511c17.368-42.009 45.784-95.492 77.893-95.492z" fill="url(#SVGID_2_)"/><path d="m305.069 145.029v-49.292c0-33.49-27.246-60.737-60.737-60.737h58.335c33.49 0 60.737 27.246 60.737 60.737v49.292z" fill="url(#SVGID_3_)"/><path d="m291.001 0c-52.874 0-95.737 42.863-95.737 95.737v49.292h35.001v-49.292c0-33.49 27.245-60.737 60.735-60.737s60.737 27.246 60.737 60.737v49.292h35.001v-49.292c0-52.874-42.863-95.737-95.737-95.737z" fill="url(#SVGID_4_)"/><path d="m109.285 412.421-109.285 34.355v6.288c0 19.717 15.984 35.7 35.7 35.7h70.002c-4.387.001 7.465-50.788 3.583-76.343z" fill="url(#SVGID_5_)"/><path d="m70.002 138.92h-70.002v307.856h93.231c-13.567-89.301-23.229-307.856-23.229-307.856z" fill="url(#SVGID_6_)"/><path d="m105.702 488.765c-19.717 0-35.7-15.983-35.7-35.7v-314.145" fill="url(#SVGID_7_)"/><path d="m476.3 488.765h-370.598c-19.717 0-35.7-15.983-35.7-35.7v-314.145h441.998v314.144c0 19.717-15.983 35.701-35.7 35.701z" fill="url(#SVGID_8_)"/><path d="m212.572 347.028h31.86v-144.8h93.138v144.8h31.86l-78.429 78.429z" fill="url(#SVGID_9_)"/><path d="m268.894 512c104.742 0 189.652-10.403 189.652-23.235h-379.304c0 12.832 84.91 23.235 189.652 23.235z" fill="url(#SVGID_10_)"/></g></svg>