<svg id="Capa_1" enable-background="new 0 0 512 512" height="512" viewBox="0 0 512 512" width="512" xmlns="http://www.w3.org/2000/svg" xmlns:xlink="http://www.w3.org/1999/xlink"><radialGradient id="SVGID_1_" cx="37.74" cy="352.984" gradientTransform="matrix(1 0 0 .421 0 204.269)" gradientUnits="userSpaceOnUse" r="130.778"><stop offset="0" stop-color="#f6e781"/><stop offset=".4756" stop-color="#f5e056"/><stop offset=".65" stop-color="#f4dd45"/><stop offset=".9873" stop-color="#f1d334"/><stop offset="1" stop-color="#f1d333"/></radialGradient><radialGradient id="SVGID_2_" cx="171.713" cy="102.183" gradientUnits="userSpaceOnUse" r="307.45"><stop offset="0" stop-color="#fffbe4"/><stop offset=".5544" stop-color="#f9efaf"/><stop offset=".6285" stop-color="#f8eea7"/><stop offset="1" stop-color="#f6e781"/></radialGradient><radialGradient id="SVGID_3_" cx="432.221" cy="4419.69" gradientTransform="matrix(-.877 -.481 .565 -1.032 -1686.581 5108.752)" gradientUnits="userSpaceOnUse" r="315.437"><stop offset="0" stop-color="#f4dd45"/><stop offset=".2362" stop-color="#f2d740"/><stop offset=".5521" stop-color="#edc631"/><stop offset=".5974" stop-color="#ecc32e"/><stop offset="1" stop-color="#e49824"/></radialGradient><radialGradient id="SVGID_4_" cx="436.188" cy="303.475" gradientTransform="matrix(-1 0 0 -1.004 872.375 608.034)" gradientUnits="userSpaceOnUse" r="358.006"><stop offset=".0988" stop-color="#8b818e"/><stop offset=".5391" stop-color="#665e66"/><stop offset="1" stop-color="#454045"/></radialGradient><radialGradient id="SVGID_5_" cx="313.534" cy="1740.07" gradientTransform="matrix(.931 0 0 .112 -38.569 239.634)" gradientUnits="userSpaceOnUse" r="208.575"><stop offset="0" stop-color="#f9efaf"/><stop offset=".2558" stop-color="#fcf5cb"/><stop offset=".4962" stop-color="#fff9e2"/><stop offset=".888" stop-color="#fff"/></radialGradient><g><path d="m4.777 380.914c-13.574 23.511 3.394 52.9 30.542 52.9h83.533c-6.652 0 27.721-55.795 41.707-90.281l-153.227 32.956z" fill="url(#SVGID_1_)"/><path d="m297.767 53.393h-83.533c-11.877 0-23.755 5.878-30.542 17.633l-176.36 305.463h125.491c43.096-106.259 155.976-323.096 164.944-323.096z" fill="url(#SVGID_2_)"/><path d="m267.225 71.026-178.914 309.888c-13.574 23.511 3.394 52.9 30.542 52.9h357.828c27.148 0 44.116-29.389 30.542-52.9l-178.914-309.888c-13.575-23.511-47.51-23.511-61.084 0z" fill="url(#SVGID_3_)"/><path d="m297.767 307.897c-13.8 0-25.311-10.548-26.514-24.295l-8.346-95.397c-1.789-20.452 14.33-38.043 34.86-38.043 20.53 0 36.649 17.591 34.86 38.043l-8.346 95.397c-1.204 13.747-12.714 24.295-26.514 24.295zm0 17.346c-16.949 0-30.689 13.74-30.689 30.689s13.74 30.689 30.689 30.689 30.689-13.74 30.689-30.689-13.74-30.689-30.689-30.689z" fill="url(#SVGID_4_)"/><path d="m256 458.607c111.762 0 202.363-11.1 202.363-24.793h-404.726c0 13.693 90.601 24.793 202.363 24.793z" fill="url(#SVGID_5_)"/></g></svg>