<svg id="Capa_1" enable-background="new 0 0 512 512" height="512" viewBox="0 0 512 512" width="512" xmlns="http://www.w3.org/2000/svg" xmlns:xlink="http://www.w3.org/1999/xlink"><radialGradient id="SVGID_1_" cx="28.02" cy="403.431" gradientTransform="matrix(1 0 0 .658 0 138.186)" gradientUnits="userSpaceOnUse" r="132.1"><stop offset=".015" stop-color="#bed8fb"/><stop offset=".4762" stop-color="#93bffb"/><stop offset=".6651" stop-color="#80b4fb"/><stop offset=".8679" stop-color="#6faafa"/><stop offset="1" stop-color="#61a2f9"/></radialGradient><radialGradient id="SVGID_2_" cx="21.795" cy="116.031" gradientUnits="userSpaceOnUse" r="254.087"><stop offset="0" stop-color="#f4fbff"/><stop offset=".5145" stop-color="#cbe2ff"/><stop offset="1" stop-color="#bed8fb"/></radialGradient><radialGradient id="SVGID_3_" cx="406.007" cy="293.112" gradientTransform="matrix(-1 0 0 -1.417 812.014 708.324)" gradientUnits="userSpaceOnUse" r="377.342"><stop offset="0" stop-color="#80b4fb"/><stop offset=".1461" stop-color="#7aaffb"/><stop offset=".3416" stop-color="#69a1fa"/><stop offset=".5158" stop-color="#5490f9"/><stop offset="1" stop-color="#407093"/></radialGradient><radialGradient id="SVGID_4_" cx="388.652" cy="84.96" gradientUnits="userSpaceOnUse" r="76.145"><stop offset="0" stop-color="#e4989d"/><stop offset=".1925" stop-color="#e38d93"/><stop offset=".5311" stop-color="#df6f79"/><stop offset=".6532" stop-color="#dd636e"/><stop offset="1" stop-color="#da4a54"/></radialGradient><radialGradient id="SVGID_5_" cx="388.339" cy="33.302" gradientUnits="userSpaceOnUse" r="107.582"><stop offset="0" stop-color="#fbe2dd"/><stop offset=".5145" stop-color="#eab1b7"/><stop offset="1" stop-color="#e4989d"/></radialGradient><radialGradient id="SVGID_6_" cx="499.123" cy="91.433" gradientTransform="matrix(-1 0 0 -1.049 998.246 187.367)" gradientUnits="userSpaceOnUse" r="108.969"><stop offset=".0988" stop-color="#dd636e"/><stop offset=".5649" stop-color="#d82e3d"/><stop offset=".6885" stop-color="#d32e3b"/><stop offset=".8402" stop-color="#c42f37"/><stop offset="1" stop-color="#ac3030"/></radialGradient><radialGradient id="SVGID_7_" cx="274.233" cy="1458.054" gradientTransform="matrix(.931 0 0 .112 -2.094 300.272)" gradientUnits="userSpaceOnUse" r="219.323"><stop offset="0" stop-color="#cbe2ff"/><stop offset=".1435" stop-color="#d6e8ff"/><stop offset=".4962" stop-color="#ecf4ff"/><stop offset=".888" stop-color="#fff"/></radialGradient><g><path d="m105.724 388.671-105.724 29.502v19.127c0 14.158 11.477 25.635 25.635 25.635h72.06c-3.018 0 9.76-46.894 8.029-74.264z" fill="url(#SVGID_1_)"/><path d="m97.694 80.114h-72.06c-14.157 0-25.634 11.477-25.634 25.635v312.425h90.571c-6.391-101.04-4.017-338.06 7.123-338.06z" fill="url(#SVGID_2_)"/><path d="m429.246 462.935h-331.552c-14.158 0-25.635-11.477-25.635-25.635v-331.551c0-14.158 11.477-25.635 25.635-25.635h331.552c14.158 0 25.635 11.477 25.635 25.635v331.551c0 14.158-11.477 25.635-25.635 25.635z" fill="url(#SVGID_3_)"/><path d="m437.637 68.725-53.513 11.389c0 31.546 25.573 57.119 57.119 57.119h13.638c-15.773 0-17.244-39.949-17.244-68.508z" fill="url(#SVGID_4_)"/><path d="m454.881 22.995h-27.276c-31.546 0-57.119 25.573-57.119 57.119h60.735c0-28.56 7.887-57.119 23.66-57.119z" fill="url(#SVGID_5_)"/><circle cx="454.881" cy="80.114" fill="url(#SVGID_6_)" r="57.119"/><path d="m255.999 489.005c117.521 0 212.791-11.672 212.791-26.07h-425.582c0 14.398 95.27 26.07 212.791 26.07z" fill="url(#SVGID_7_)"/></g></svg>