<svg id="Capa_1" enable-background="new 0 0 512 512" height="512" viewBox="0 0 512 512" width="512" xmlns="http://www.w3.org/2000/svg" xmlns:xlink="http://www.w3.org/1999/xlink"><linearGradient id="lg1"><stop offset=".0353" stop-color="#dfdde2"/><stop offset=".2285" stop-color="#d5d2d8"/><stop offset=".5685" stop-color="#b9b4bd"/><stop offset=".6715" stop-color="#afaab4"/><stop offset="1" stop-color="#a298a5"/></linearGradient><radialGradient id="SVGID_1_" cx="175.687" cy="291.053" gradientUnits="userSpaceOnUse" r="248.571" xlink:href="#lg1"/><linearGradient id="lg2"><stop offset="0" stop-color="#fff"/><stop offset=".0652" stop-color="#fdfdfd"/><stop offset=".5145" stop-color="#f1f1f4"/><stop offset=".9782" stop-color="#dfdde2"/></linearGradient><radialGradient id="SVGID_2_" cx="166.801" cy="93.566" gradientUnits="userSpaceOnUse" r="136.555" xlink:href="#lg2"/><linearGradient id="lg3"><stop offset="0" stop-color="#dfdde2"/><stop offset=".2772" stop-color="#c9c6cd"/><stop offset=".5584" stop-color="#afaab4"/><stop offset=".8574" stop-color="#a79fab"/><stop offset="1" stop-color="#a298a5"/></linearGradient><radialGradient id="SVGID_3_" cx="437.266" cy="355.305" gradientUnits="userSpaceOnUse" r="349.32" xlink:href="#lg3"/><radialGradient id="SVGID_4_" cx="365.778" cy="286.992" gradientUnits="userSpaceOnUse" r="138.135"><stop offset=".0988" stop-color="#8b818e"/><stop offset=".5391" stop-color="#665e66"/><stop offset="1" stop-color="#454045"/></radialGradient><radialGradient id="SVGID_5_" cx="363.806" cy="279.107" gradientUnits="userSpaceOnUse" r="184.287" xlink:href="#lg3"/><radialGradient id="SVGID_6_" cx="31.035" cy="384.78" gradientUnits="userSpaceOnUse" r="109.289" xlink:href="#lg1"/><radialGradient id="SVGID_7_" cx="39.061" cy="292.486" gradientUnits="userSpaceOnUse" r="59.778" xlink:href="#lg2"/><radialGradient id="SVGID_8_" cx="141.162" cy="382.349" gradientTransform="matrix(-.707 -.707 .787 -.787 -59.832 782.976)" gradientUnits="userSpaceOnUse" r="125.15"><stop offset="0" stop-color="#dfdde2"/><stop offset=".1525" stop-color="#cbc8cf"/><stop offset=".3545" stop-color="#b7b2bb"/><stop offset=".4846" stop-color="#afaab4"/><stop offset=".8336" stop-color="#a79fab"/><stop offset="1" stop-color="#a298a5"/></radialGradient><radialGradient id="SVGID_9_" cx="405.413" cy="1712.143" gradientTransform="matrix(.931 0 0 .112 -111.519 220.112)" gradientUnits="userSpaceOnUse" r="230.37"><stop offset="0" stop-color="#c6c1c8"/><stop offset=".2432" stop-color="#dddbdf"/><stop offset=".4962" stop-color="#f1f1f4"/><stop offset=".888" stop-color="#fff"/></radialGradient><linearGradient id="lg4"><stop offset="0" stop-color="#e4989d"/><stop offset=".1925" stop-color="#e38d93"/><stop offset=".5311" stop-color="#df6f79"/><stop offset=".6532" stop-color="#dd636e"/><stop offset="1" stop-color="#da4a54"/></linearGradient><radialGradient id="SVGID_10_" cx="456.877" cy="164.015" gradientUnits="userSpaceOnUse" r="42.656" xlink:href="#lg4"/><linearGradient id="lg5"><stop offset="0" stop-color="#fbe2dd"/><stop offset=".5145" stop-color="#eab1b7"/><stop offset="1" stop-color="#e4989d"/></linearGradient><radialGradient id="SVGID_11_" cx="451.682" cy="72.047" gradientUnits="userSpaceOnUse" r="91.182" xlink:href="#lg5"/><radialGradient id="SVGID_12_" cx="440.683" cy="221.456" gradientUnits="userSpaceOnUse" r="45.861" xlink:href="#lg4"/><radialGradient id="SVGID_13_" cx="455.349" cy="195.791" gradientUnits="userSpaceOnUse" r="30.205" xlink:href="#lg5"/><radialGradient id="SVGID_14_" cx="583.144" cy="178.928" gradientTransform="matrix(-1 0 0 -1.004 1166.289 358.495)" gradientUnits="userSpaceOnUse" r="246.265"><stop offset=".0988" stop-color="#dd636e"/><stop offset=".5649" stop-color="#d82e3d"/><stop offset=".6885" stop-color="#d32e3b"/><stop offset=".8402" stop-color="#c42f37"/><stop offset="1" stop-color="#ac3030"/></radialGradient><g><path d="m257.662 218.536-175.161 23.772c0 93.249 75.593 168.841 168.841 168.841h67.676c-46.624.001-61.356-108.192-61.356-192.613z" fill="url(#SVGID_1_)"/><path d="m319.018 73.467h-67.676c-93.249 0-168.841 75.593-168.841 168.841h166.581c0-84.42 23.312-168.841 69.936-168.841z" fill="url(#SVGID_2_)"/><path d="m319.018 73.467c-93.249 0-168.841 75.593-168.841 168.841s75.593 168.842 168.841 168.842 168.842-75.593 168.842-168.842-75.593-168.841-168.842-168.841z" fill="url(#SVGID_3_)"/><path d="m319.018 175.542c-36.874 0-66.766 29.892-66.766 66.766s29.892 66.766 66.766 66.766 66.766-29.892 66.766-66.766-29.892-66.766-66.766-66.766z" fill="url(#SVGID_4_)"/><circle cx="319.018" cy="242.308" fill="url(#SVGID_5_)" r="35.811"/><path d="m89.507 342.359-89.507 11.179c0 31.818 25.794 57.612 57.612 57.612h50.08c-15.909 0-18.185-39.985-18.185-68.791z" fill="url(#SVGID_6_)"/><path d="m107.692 295.925h-50.08c-31.818 0-57.612 25.794-57.612 57.613h83.829c0-28.806 7.954-57.613 23.863-57.613z" fill="url(#SVGID_7_)"/><circle cx="107.692" cy="353.538" fill="url(#SVGID_8_)" r="57.612"/><path d="m268.894 438.533c123.44 0 223.509-12.26 223.509-27.383h-447.017c0 15.123 100.068 27.383 223.508 27.383z" fill="url(#SVGID_9_)"/><path d="m466.285 181.969h21.642c-2.354 0-2.008-11.889-3.552-21.927l-36.329 5.215c.828 9.457 8.746 16.712 18.239 16.712z" fill="url(#SVGID_10_)"/><path d="m487.927 73.467h-21.642c-14.122 0-25.21 12.101-23.979 26.169l5.741 65.622h33.927c-4.682-30.435-4.666-91.791 5.953-91.791z" fill="url(#SVGID_11_)"/><path d="m484.375 207.401-39.201 7.61c0 11.659 9.451 21.11 21.11 21.11h21.642c-5.828.001-3.551-18.164-3.551-28.72z" fill="url(#SVGID_12_)"/><path d="m487.927 193.901h-21.642c-11.659 0-21.11 9.451-21.11 21.11h34.009c-.001-10.554 2.914-21.11 8.743-21.11z" fill="url(#SVGID_13_)"/><path d="m487.927 181.969c-9.493 0-17.411-7.256-18.238-16.712l-5.741-65.622c-1.231-14.068 9.857-26.169 23.979-26.169 14.122 0 25.21 12.101 23.979 26.169l-5.741 65.622c-.827 9.457-8.745 16.712-18.238 16.712zm0 11.932c-11.659 0-21.11 9.451-21.11 21.11s9.451 21.11 21.11 21.11 21.11-9.451 21.11-21.11c.001-11.658-9.451-21.11-21.11-21.11z" fill="url(#SVGID_14_)"/></g></svg>