<svg id="Capa_1" enable-background="new 0 0 512 512" height="512" viewBox="0 0 512 512" width="512" xmlns="http://www.w3.org/2000/svg" xmlns:xlink="http://www.w3.org/1999/xlink"><linearGradient id="lg1"><stop offset=".0353" stop-color="#afaab4"/><stop offset=".2645" stop-color="#a59faa"/><stop offset=".6678" stop-color="#8b818e"/><stop offset=".6715" stop-color="#8b818e"/><stop offset="1" stop-color="#756e78"/></linearGradient><radialGradient id="SVGID_1_" cx="28.635" cy="422.451" gradientTransform="matrix(1 .001 -.001 1.37 .471 -156.213)" gradientUnits="userSpaceOnUse" r="100.731" xlink:href="#lg1"/><linearGradient id="lg2"><stop offset="0" stop-color="#f9f6f9"/><stop offset=".5145" stop-color="#c6c1c8"/><stop offset="1" stop-color="#afaab4"/></linearGradient><radialGradient id="SVGID_2_" cx="132.631" cy="7.698" gradientTransform="matrix(-1 0 0 -.987 265.262 15.291)" gradientUnits="userSpaceOnUse" r="121.63" xlink:href="#lg2"/><radialGradient id="SVGID_3_" cx="115.373" cy="111.454" gradientTransform="matrix(-1 0 0 -.987 230.746 221.398)" gradientUnits="userSpaceOnUse" r="169.2" xlink:href="#lg1"/><linearGradient id="lg3"><stop offset=".0988" stop-color="#8b818e"/><stop offset=".5391" stop-color="#665e66"/><stop offset="1" stop-color="#454045"/></linearGradient><radialGradient id="SVGID_4_" cx="333.208" cy="124.75" gradientTransform="matrix(-1 0 0 -.987 666.415 247.81)" gradientUnits="userSpaceOnUse" r="248.548" xlink:href="#lg3"/><radialGradient id="SVGID_5_" cx="450.816" cy="459.572" gradientTransform="matrix(1.049 .515 -.958 1.303 135.228 -371.389)" gradientUnits="userSpaceOnUse" r="182.099" xlink:href="#lg2"/><radialGradient id="SVGID_6_" cx="564.482" cy="444.298" gradientTransform="matrix(1.049 .515 -.958 1.303 140.455 -425.291)" gradientUnits="userSpaceOnUse" r="235.723" xlink:href="#lg3"/><radialGradient id="SVGID_7_" cx="394.136" cy="474.621" gradientTransform="matrix(-1 0 0 -.987 788.271 942.815)" gradientUnits="userSpaceOnUse" r="60.182"><stop offset="0" stop-color="#cbe7af"/><stop offset=".5156" stop-color="#add984"/><stop offset=".5601" stop-color="#aad880"/><stop offset=".9039" stop-color="#9fd26f"/><stop offset="1" stop-color="#9bd069"/></radialGradient><linearGradient id="lg4"><stop offset="0" stop-color="#e7f6ec"/><stop offset=".5145" stop-color="#daefc8"/><stop offset="1" stop-color="#cbe7af"/></linearGradient><radialGradient id="SVGID_8_" cx="352.51" cy="397.872" gradientTransform="matrix(-1 0 0 -.987 705.02 790.355)" gradientUnits="userSpaceOnUse" r="55.342" xlink:href="#lg4"/><radialGradient id="SVGID_9_" cx="391.854" cy="354.378" gradientTransform="matrix(-1 0 0 -.987 783.708 703.957)" gradientUnits="userSpaceOnUse" r="54.9" xlink:href="#lg4"/><radialGradient id="SVGID_10_" cx="409.594" cy="360.222" gradientTransform="matrix(-1 0 0 -.987 819.188 715.565)" gradientUnits="userSpaceOnUse" r="164.935"><stop offset="0" stop-color="#aad880"/><stop offset=".0981" stop-color="#a3d576"/><stop offset=".4843" stop-color="#8bc852"/><stop offset=".8405" stop-color="#65a15c"/><stop offset="1" stop-color="#528e61"/></radialGradient><radialGradient id="SVGID_11_" cx="313.31" cy="1494.045" gradientTransform="matrix(.931 0 0 .112 -38.569 318.485)" gradientUnits="userSpaceOnUse" r="225.782"><stop offset="0" stop-color="#c6c1c8"/><stop offset=".2432" stop-color="#dddbdf"/><stop offset=".4962" stop-color="#f1f1f4"/><stop offset=".888" stop-color="#fff"/></radialGradient><g><path d="m4.65 485.162h66.001s21.622-31.302 39.412-73.378l-105.413 16.723z" fill="url(#SVGID_1_)"/><path d="m200.962 133.025c-5.917-60.231 8.267-133.025 42.553-133.025h-66.977c-58.48 0-105.887 47.407-105.887 105.887z" fill="url(#SVGID_2_)"/><path d="m137.628 105.887c4.175 42.502 81.693 105.887 105.887 105.887h-66.977c-58.316 0-105.887-47.248-105.887-105.887z" fill="url(#SVGID_3_)"/><circle cx="243.515" cy="105.887" fill="url(#SVGID_4_)" r="105.887"/><path d="m243.515 255.643h-66.001c-95.47 0-172.864 77.394-172.864 172.863h94.136c30.872-73.011 84.163-172.863 144.729-172.863z" fill="url(#SVGID_5_)"/><path d="m416.379 485.162h-345.728v-56.655c0-95.47 77.394-172.864 172.864-172.864 95.47 0 172.864 77.394 172.864 172.864z" fill="url(#SVGID_6_)"/><path d="m384.782 485.162v-42.074l43.307-8.765-10.539 50.839z" fill="url(#SVGID_7_)"/><path d="m342.708 443.088v-47.726h32.769l5.118 23.863-5.118 23.863z" fill="url(#SVGID_8_)"/><path d="m384.782 395.362v-42.073h32.768l5.296 47.109z" fill="url(#SVGID_9_)"/><path d="m507.35 395.362h-42.074v-42.073h-47.726v42.073h-42.073v47.726h42.073v42.074h47.726v-42.074h42.074z" fill="url(#SVGID_10_)"/><path d="m256 512c120.982 0 219.058-12.016 219.058-26.838h-438.116c0 14.822 98.076 26.838 219.058 26.838z" fill="url(#SVGID_11_)"/></g></svg>